Coordinates
version=1
nRows=4
nColumns=124
inDegrees=yes

Units are S.I. units (second, meters, Newtons, ...)
If the header above contains a line with 'inDegrees', this indicates whether rotational values are in degrees (yes) or radians (no).

endheader 
time	pelvis_tilt	pelvis_list	pelvis_rotation	pelvis_tx	pelvis_ty	pelvis_tz	hip_flexion_l	hip_adduction_l	hip_rotation_l	hip_flexion_r	hip_adduction_r	hip_rotation_r	knee_angle_l	knee_angle_r	ankle_angle_l	ankle_angle_r	subtalar_angle_l	subtalar_angle_r	mtp_angle_l	mtp_angle_r	lumbar_extension	lumbar_bending	lumbar_rotation	arm_flex_l	arm_add_l	arm_rot_l	arm_flex_r	arm_add_r	arm_rot_r	elbow_flex_l	elbow_flex_r	glut_med1_l/activation	glut_med2_l/activation	glut_med3_l/activation	glut_min1_l/activation	glut_min2_l/activation	glut_min3_l/activation	semimem_l/activation	semiten_l/activation	bifemlh_l/activation	bifemsh_l/activation	sar_l/activation	add_long_l/activation	add_brev_l/activation	add_mag1_l/activation	add_mag2_l/activation	add_mag3_l/activation	tfl_l/activation	pect_l/activation	grac_l/activation	glut_max1_l/activation	glut_max2_l/activation	glut_max3_l/activation	iliacus_l/activation	psoas_l/activation	quad_fem_l/activation	gem_l/activation	peri_l/activation	rect_fem_l/activation	vas_med_l/activation	vas_int_l/activation	vas_lat_l/activation	med_gas_l/activation	lat_gas_l/activation	soleus_l/activation	tib_post_l/activation	flex_dig_l/activation	flex_hal_l/activation	tib_ant_l/activation	per_brev_l/activation	per_long_l/activation	per_tert_l/activation	ext_dig_l/activation	ext_hal_l/activation	ercspn_l/activation	intobl_l/activation	extobl_l/activation	glut_med1_r/activation	glut_med2_r/activation	glut_med3_r/activation	glut_min1_r/activation	glut_min2_r/activation	glut_min3_r/activation	semimem_r/activation	semiten_r/activation	bifemlh_r/activation	bifemsh_r/activation	sar_r/activation	add_long_r/activation	add_brev_r/activation	add_mag1_r/activation	add_mag2_r/activation	add_mag3_r/activation	tfl_r/activation	pect_r/activation	grac_r/activation	glut_max1_r/activation	glut_max2_r/activation	glut_max3_r/activation	iliacus_r/activation	psoas_r/activation	quad_fem_r/activation	gem_r/activation	peri_r/activation	rect_fem_r/activation	vas_med_r/activation	vas_int_r/activation	vas_lat_r/activation	med_gas_r/activation	lat_gas_r/activation	soleus_r/activation	tib_post_r/activation	flex_dig_r/activation	flex_hal_r/activation	tib_ant_r/activation	per_brev_r/activation	per_long_r/activation	per_tert_r/activation	ext_dig_r/activation	ext_hal_r/activation	ercspn_r/activation	intobl_r/activation	extobl_r/activation	
          0.00000000	         -7.67308562	         -4.03824568	          6.57498612	          0.00000000	          0.89353545	         -0.00633622	        -12.84515759	         -2.34956728	          6.91035535	         36.72766790	          3.11076076	         -5.79924337	        -10.54195646	        -17.31751765	          4.31718889	         10.53750648	         -0.10106577	         -2.77638204	         35.05972142	          0.28791901	          2.75202946	          0.99213514	         -1.03402827	         -7.28657242	        -13.48530744	         14.95597609	         -3.38730439	        -13.66244263	         15.94949171	         92.66422480	          3.39176248	          0.15208396	          0.09242100	          0.09240709	          0.18137463	          0.15581107	          0.10910164	          0.05000222	          0.05000156	          0.05000160	          0.09907353	          0.07187401	          0.17209907	          0.11171870	          0.05002429	          0.05001541	          0.05001264	          0.28597923	          0.06251040	          0.05001405	          0.05000623	          0.05000452	          0.05000386	          0.14720767	          0.50273113	          0.05000096	          0.05549936	          0.09239905	          0.05000052	          0.05000391	          0.05000321	          0.05000811	          0.31219643	          0.46111217	          0.25508809	          0.48032652	          0.56268218	          0.51082767	          0.05000008	          0.05000031	          0.05000016	          0.05000038	          0.05000012	          0.05000053	          0.05000008	          0.05000017	          0.05000011	          0.05001994	          0.05000362	          0.05000050	          0.05000814	          0.05001124	          0.05000856	          0.14321274	          0.05000583	          0.05000061	          0.05000835	          0.06765832	          0.05481719	          0.07887420	          0.09585220	          0.10020274	          0.11071935	          0.06798409	          0.05000887	          0.05082247	          0.05000389	          0.05000204	          0.12879138	          0.06216031	          0.07695372	          0.17682023	          0.12571986	          0.12746499	          0.07684165	          0.19467750	          0.19577083	          0.16998202	          0.05000091	          0.05000021	          0.05000004	          0.06924395	          0.05000219	          0.05000654	          0.72101191	          0.40179808	          0.19765354	          0.54750783	          0.72717705	          0.30987344	          0.08556185	          0.09928195	          0.09112070	
          0.02156791	         -7.64788528	         -4.21998367	          7.19207612	          0.03433624	          0.88986540	         -0.00586782	        -12.51732296	         -2.79957509	          5.90846586	         35.54463005	          3.52040266	         -5.27329588	        -15.01277215	        -18.49320080	          3.05781122	          9.60223041	          0.80816866	         -3.65040998	         37.24167815	          0.24293182	          3.05241530	          1.35838617	         -1.10872436	         -8.00748903	        -13.53931088	         16.13641584	         -5.11277616	        -13.78573667	         14.45796772	         97.05835632	          2.38125234	          0.33710241	          0.06798344	          0.06797318	          0.17860374	          0.11461244	          0.08025349	          0.05000365	          0.05000237	          0.05000255	          0.07287689	          0.05287017	          0.24360098	          0.27861086	          0.06797580	          0.06506024	          0.12562912	          0.37044906	          0.05023309	          0.05001098	          0.05001010	          0.05000724	          0.05000517	          0.10828385	          0.43657980	          0.05000096	          0.05000165	          0.06796729	          0.05000020	          0.05000036	          0.05000032	          0.05000020	          0.22964653	          0.33918666	          0.21129125	          0.41612794	          0.41534124	          0.40322559	          0.05000273	          0.05000013	          0.05000010	          0.05000042	          0.05000018	          0.05000185	          0.08849895	          0.05000009	          0.05000011	          0.24298485	          0.27492983	          0.47979232	          0.05001007	          0.05000244	          0.27454186	          0.12559448	          0.05000079	          0.07750195	          0.05000055	          0.05000592	          0.06797541	          0.14220964	          0.12819012	          0.10596114	          0.12945338	          0.05000833	          0.05270766	          0.05000834	          0.19198936	          0.14449823	          0.09473734	          0.05468806	          0.05660638	          0.13006646	          0.09247828	          0.33775215	          0.05652352	          0.14320166	          0.14400589	          0.12503606	          0.05000025	          0.05000092	          0.05000041	          0.06487880	          0.05000111	          0.05000106	          0.61058234	          0.29555605	          0.14539069	          0.40273848	          0.83333883	          0.51773190	          0.10005761	          0.12123967	          0.06702692	
          0.04313583	         -7.61796136	         -4.34297506	          7.67347035	          0.06834121	          0.88725010	         -0.00521230	        -11.61277025	         -3.22735975	          4.91192812	         34.20579990	          4.00587429	         -4.63549636	        -20.39870997	        -19.95665233	          1.73321688	          8.72406576	          1.75663625	         -4.80699354	         37.19744037	          0.22070509	          3.32032497	          1.71873994	         -1.16138943	         -8.60237126	        -13.57565317	         17.19089567	         -6.67251113	        -13.87315765	         13.24529122	        100.23955255	          1.72485646	          0.24796706	          0.05000759	          0.05000012	          0.27544354	          0.08430746	          0.05903332	          0.05020506	          0.05000068	          0.05000040	          0.05360709	          0.05000142	          0.35393685	          0.31196735	          0.05000488	          0.08223172	          0.09241191	          0.42658431	          0.05000306	          0.05000078	          0.05000272	          0.05000159	          0.05000059	          0.07965228	          0.39947697	          0.05000013	          0.05000070	          0.05000024	          0.05000095	          0.05817859	          0.06147277	          0.05436237	          0.16892418	          0.24950016	          0.15542273	          0.33466783	          0.30551908	          0.29660719	          0.05000006	          0.05000440	          0.06664294	          0.05000069	          0.14265327	          0.05000050	          0.13097146	          0.05000003	          0.05000009	          0.36859312	          0.47744316	          0.60804247	          0.19318457	          0.32046153	          0.40183600	          0.09238528	          0.09436247	          0.06501916	          0.06797265	          0.05000053	          0.05000208	          0.10460746	          0.16835874	          0.18684499	          0.15802022	          0.05000065	          0.05000437	          0.12873123	          0.32200997	          0.24495628	          0.18851560	          0.05000013	          0.05000014	          0.25934415	          0.06802677	          0.31494715	          0.05000009	          0.15825676	          0.24366259	          0.23145723	          0.05000007	          0.05000016	          0.05000001	          0.05000007	          0.05000383	          0.05000145	          0.83361613	          0.21740654	          0.10694715	          0.59031328	          0.73261551	          0.38083778	          0.12720519	          0.08954513	          0.05000009	
          0.06470374	         -7.58650858	         -4.39609066	          7.99919381	          0.10120950	          0.88674560	         -0.00439113	        -10.09286619	         -3.65104991	          4.03021778	         33.09992335	          4.52145004	         -3.96840528	        -26.50552168	        -21.87334325	          0.11526803	          8.90951789	          2.85656644	         -6.23456498	         34.41725354	          0.15848785	          3.52041868	          2.05747187	         -1.18300374	         -8.96825776	        -13.56428801	         18.06138222	         -7.80389044	        -13.88151571	         12.60990177	        101.97053723	          1.12520473	          0.18240051	          0.05000070	          0.05000070	          0.20261201	          0.06201576	          0.05000134	          0.05001111	          0.05000215	          0.05581877	          0.05000016	          0.05000193	          0.35450405	          0.44738495	          0.19959564	          0.09237438	          0.06797721	          0.47848104	          0.19204266	          0.05002904	          0.05000904	          0.05000667	          0.05003067	          0.05859135	          0.32588030	          0.05000193	          0.05000655	          0.05000113	          0.05000019	          0.05000025	          0.05000022	          0.05000016	          0.12425784	          0.18352825	          0.11432639	          0.24617622	          0.22473512	          0.21817965	          0.08657159	          0.05000034	          0.05000040	          0.05000052	          0.31166030	          0.05000300	          0.14667172	          0.05000005	          0.05000009	          0.44044967	          0.47501220	          0.54755743	          0.14211044	          0.23572951	          0.29558558	          0.07194679	          0.08367156	          0.07023180	          0.05000061	          0.05000084	          0.05000125	          0.07694841	          0.20599339	          0.23654981	          0.18335705	          0.05000080	          0.05000723	          0.09469527	          0.34761910	          0.27419833	          0.21752448	          0.05000024	          0.05000026	          0.19077119	          0.05004125	          0.23167032	          0.05000019	          0.23716499	          0.30691266	          0.29758822	          0.05000012	          0.05000027	          0.05000006	          0.14664412	          0.05000135	          0.05000118	          0.78731059	          0.15992101	          0.07892507	          0.43422512	          0.69283740	          0.41608963	          0.11597201	          0.06586800	          0.05000013	
